<svg width="513" height="482" xmlns="http://www.w3.org/2000/svg">

 <g>
  <title>background</title>
  <rect fill="none" id="canvas_background" height="484" width="515" y="-1" x="-1"/>
 </g>
 <g>
  <title>Layer 1</title>
  <g id="svg_1">
   <path id="svg_2" fill="#fcb900" d="m403.445058,11.3c41.2,8.7 78.3,41.7 91.2,82.2c12.9,40.4 1.7,88.3 -6.8,135.5c-8.5,47.2 -14.2,93.8 -36.5,134.2c-22.2,40.5 -61,74.9 -107.6,93.7c-46.6,18.8 -101,22 -139.9,-1.6c-38.8,-23.5 -62,-73.8 -93.7,-114.4c-31.6,-40.6 -71.8,-71.6 -89.1,-113.2c-17.3,-41.6 -11.8,-93.7 13,-132.5c24.8,-38.8 68.9,-64.2 111.6,-72.2c42.8,-8 84.3,1.5 127.7,-1.6c43.4,-3.1 88.8,-18.7 130.1,-10.1z"/>
  </g>
 </g>
</svg>