<?xml version="1.0" standalone="no"?>
<svg
  width="600"
  height="600"
  viewBox="0 0 600 600"
  xmlns="http://www.w3.org/2000/svg"
>
  <g transform="translate(300,300)">
    <path d="M132.1,-187.7C173.3,-179,210.4,-146,223.3,-105.5C236.2,-65.1,225,-17.2,216.5,30C208,77.2,202.3,123.8,180,164.2C157.8,204.7,119,239.1,72.4,257.9C25.8,276.7,-28.6,279.9,-67.5,256.3C-106.3,232.8,-129.5,182.5,-161.2,141.9C-192.8,101.3,-233,70.3,-250.3,28.7C-267.6,-12.9,-262.1,-65,-237.3,-103.8C-212.5,-142.6,-168.4,-168,-125.7,-176C-82.9,-184,-41.4,-174.5,2,-177.6C45.4,-180.7,90.8,-196.3,132.1,-187.7Z" fill="#fcb900" />
  </g>
</svg>
    