<?xml version="1.0" standalone="no"?>
<svg
  width="600"
  height="600"
  viewBox="0 0 600 600"
  xmlns="http://www.w3.org/2000/svg"
>
  <g transform="translate(300,300)">
    <path d="M97.4,-158.4C118.8,-137.9,123.5,-98.2,132.2,-64.6C140.9,-31.1,153.6,-3.6,144.5,16.8C135.3,37.1,104.3,50.3,86.3,79.4C68.3,108.6,63.3,153.6,45.6,161.9C27.8,170.2,-2.7,141.7,-35.2,128.3C-67.8,115,-102.3,116.8,-138,103.8C-173.7,90.9,-210.6,63.2,-203.8,36.1C-197.1,9,-146.8,-17.5,-121.7,-48.5C-96.5,-79.6,-96.7,-115.1,-80.6,-138.1C-64.5,-161.1,-32.3,-171.5,2.9,-176C38,-180.5,76.1,-179,97.4,-158.4Z" fill="#FE840E" />
  </g>
</svg>
    